<?xml version="1.0" standalone="no"?>
<!DOCTYPE svg PUBLIC "-//W3C//DTD SVG 20010904//EN"
 "http://www.w3.org/TR/2001/REC-SVG-20010904/DTD/svg10.dtd">
<svg version="1.0" xmlns="http://www.w3.org/2000/svg"
 width="166.000000pt" height="119.000000pt" viewBox="0 0 166.000000 119.000000"
 preserveAspectRatio="xMidYMid meet">

<g transform="translate(0.000000,119.000000) scale(0.100000,-0.100000)"
fill="#000000" stroke="none">
<path d="M760 970 c-112 -20 -228 -110 -278 -217 -24 -51 -27 -70 -27 -158 0
-93 2 -105 33 -167 49 -100 154 -185 253 -205 l29 -5 0 131 0 131 -50 0 -50 0
0 60 0 60 49 0 49 0 3 79 c4 72 7 83 33 110 35 36 104 55 161 43 l40 -8 0 -49
0 -50 -40 -3 c-54 -5 -63 -14 -67 -72 l-3 -50 53 0 54 0 -7 -52 c-4 -29 -9
-56 -12 -60 -2 -5 -23 -8 -46 -8 l-42 0 0 -131 0 -131 27 6 c95 19 210 115
256 213 24 51 27 70 27 158 -1 82 -5 109 -23 150 -76 164 -248 256 -422 225z"/>
</g>
</svg>
